<svg aria-hidden="true" version="1.1" xmlns="http://www.w3.org/2000/svg" xml:space="preserve">
  <defs>
		<symbol title="headphone-icon" id="headphoneIcon" x="0px" y="0px" viewBox="0 0 100 100">
			<path class="st0" d="M89.3,65c-0.3-0.6-0.8-1-1.4-1.3c1-3.8,1.4-12.4,1.4-15.6c0-9-3.8-17.5-10.6-24l0.1-0.3c0.8-1.9,0.2-4-1.6-5.2
				c-6.1-4.1-17.1-8.5-26.8-8.5c-9,0-19.9,3.1-26.7,7.5c-1.7,1.1-2.4,3.1-1.7,5l0.2,0.6c-7.5,6.7-11.6,15.6-11.6,25.1
				c0,3.1,0.5,11.6,1.4,15.5C11.5,64,11,64.4,10.7,65c-0.5,0.9-0.7,1.9-0.5,3.1l3.3,15.3c0.4,2.1,2.1,3.7,3.9,3.7c0.2,0,0.3,0,0.5,0
				l2.4-0.4c0.7,1.9,2.6,3.3,4.8,3.3c0.3,0,0.5,0,0.8-0.1l6.9-1c1.3-0.2,2.5-0.9,3.3-1.9c0.8-1,1.1-2.2,0.9-3.5l-4.8-24.2
				c-0.2-1.2-0.9-2.3-2-3c-1.1-0.7-2.4-1-3.7-0.8l-6.9,1c-2.7,0.4-4.6,2.8-4.2,5.3l0.2,1.1l-1.4,0.2c-0.8-3.5-1.4-11.5-1.4-15
				c0-8.6,3.6-16.7,10.2-22.9l0.4,1.2c0.3,0.9,1.1,1.6,2.1,1.9c1,0.3,2,0.1,2.8-0.4c6.1-4.2,14.2-6.6,22.2-6.6c8.1,0,16.2,2.4,22.3,6.7
				c0.6,0.4,1.2,0.6,1.9,0.6c0.3,0,0.6,0,0.9-0.1c1-0.3,1.7-0.9,2.1-1.8l0.3-0.6c6,6.1,9.3,13.8,9.3,22c0,3.5-0.5,11.7-1.3,15.1
				l-1.4-0.2l0.2-1.2c0.4-2.5-1.5-4.9-4.2-5.3l-6.9-1c-2.7-0.4-5.3,1.3-5.8,3.9L63,83.6c-0.2,1.2,0.1,2.5,0.9,3.5c0.8,1,2,1.7,3.3,1.9
				l6.9,1c0.3,0,0.5,0.1,0.8,0.1c2.2,0,4.2-1.3,4.8-3.3l2.4,0.4c0.2,0,0.3,0,0.5,0c1.9,0,3.6-1.6,3.9-3.7L89.9,68
				C90,67,89.9,65.9,89.3,65z M19.9,58.5l6.9-1c0.2,0,0.3,0,0.5,0c0.6,0,1.2,0.2,1.7,0.5c0.6,0.4,1,1,1.2,1.8l4.8,24.2
				c0.1,0.7-0.1,1.4-0.5,2c-0.5,0.6-1.1,1-1.9,1.1l-6.9,1c-1.6,0.2-3-0.8-3.3-2.2l-4.8-24.2C17.2,60,18.3,58.7,19.9,58.5z M13.5,65.3
				l2.5-0.4l3.9,19.8L17.5,85c-0.9,0.1-1.8-0.8-2-2l-3.3-15.3c-0.1-0.6,0-1.3,0.3-1.8C12.7,65.7,13,65.3,13.5,65.3z M76.9,23l-1.3,3
				c-0.1,0.3-0.4,0.5-0.7,0.6c-0.2,0-0.5,0.1-0.9-0.1c-6.5-4.5-15.1-7.1-23.6-7.1c-8.5,0-17,2.5-23.4,7c-0.3,0.2-0.6,0.2-0.9,0.1
				c-0.3-0.1-0.6-0.3-0.7-0.6l-1.4-3.9c-0.4-1,0-2.1,0.9-2.7c6.3-4.1,17.1-7.1,25.5-7.1c8.9,0,19.6,4.1,25.6,8.1
				C77,20.8,77.4,22,76.9,23z M77.7,85.7c-0.2,1.4-1.7,2.4-3.3,2.2l-6.9-1c-0.8-0.1-1.4-0.5-1.9-1.1c-0.5-0.6-0.6-1.3-0.5-2l4.8-24.2
				c0.2-1.4,1.7-2.4,3.3-2.2l6.9,1c1.6,0.2,2.6,1.6,2.4,3L77.7,85.7z M87.7,67.7L84.4,83c-0.2,1.2-1.1,2.1-2,2l-2.3-0.3L84,64.9
				l2.5,0.4c0.5,0.1,0.8,0.5,0.9,0.7C87.7,66.4,87.8,67.1,87.7,67.7z"/>
		</symbol>

		<symbol title="lang-fr-icon" id="langFrIcon" x="0px" y="0px" viewBox="0 0 100 100">
			<path class="st0" d="M29.93,68.42V29.54h15.02v3.89h-9.6v12.96h7.44v3.84h-7.44v18.19H29.93z M48.68,68.42V29.54h7.82
			c2.59,0,4.74,0.35,6.43,1.06c1.7,0.67,2.94,1.78,3.74,3.31c0.83,1.5,1.25,3.49,1.25,5.95c0,1.5-0.16,2.88-0.48,4.13
			c-0.32,1.22-0.83,2.26-1.54,3.12c-0.7,0.83-1.63,1.44-2.78,1.82l5.52,19.49h-5.23l-5.09-18.24H54.1v18.24H48.68z M54.1,46.29h2.06
			c1.54,0,2.78-0.19,3.74-0.58c0.96-0.38,1.66-1.04,2.11-1.97c0.45-0.93,0.67-2.22,0.67-3.89c0-2.27-0.42-3.9-1.25-4.9
			c-0.83-1.02-2.48-1.54-4.94-1.54h-2.4V46.29z"/>
		</symbol>

		<symbol title="turn-off-icon" id="turnOffIcon" x="0px" y="0px" viewBox="0 0 100 100">
			<path class="st0" d="M50,72.5c11.43,0,20.72-9.29,20.72-20.72c0-6.67-3.24-12.98-8.68-16.86c-1.47-1.05-3.51-0.71-4.56,0.76
			c-1.05,1.47-0.71,3.51,0.76,4.56c3.72,2.66,5.94,6.97,5.94,11.54c0,7.82-6.36,14.18-14.18,14.18S35.82,59.6,35.82,51.78
			c0-4.57,2.22-8.88,5.94-11.54c1.47-1.05,1.81-3.09,0.76-4.56c-1.05-1.47-3.09-1.81-4.56-0.76c-5.43,3.89-8.68,10.19-8.68,16.86
			C29.28,63.21,38.58,72.5,50,72.5z"/>
			<path class="st0" d="M49.77,46.98c1.55,0,2.81-1.14,2.81-2.54V30.05c0-1.4-1.26-2.54-2.81-2.54c-1.55,0-2.81,1.14-2.81,2.54v14.39
			C46.95,45.84,48.21,46.98,49.77,46.98z"/>
		</symbol>

		<symbol title="sound-turn-off-icon" id="audioOffIcon" x="0px" y="0px" viewBox="0 0 100 100">
			<path class="st0" d="M57.1,24.5c-1.1-0.6-2.3-0.4-3.3,0.3L37.9,37.5H27.4c-1.7,0-3.1,1.5-3.1,3.3v16.7c0,1.8,1.4,3.3,3.1,3.3h10.5
				l15.9,12.7c1.4,1.1,3.4,0.8,4.4-0.7c0.4-0.6,0.6-1.3,0.6-2V27.5C58.9,26.3,58.2,25.1,57.1,24.5z M55.7,70.9l-16.3-13
				c-0.3-0.2-0.6-0.3-0.9-0.3h-11V40.9h11c0.3,0,0.7-0.1,0.9-0.3l16.3-13L55.7,70.9L55.7,70.9z"/>
			<path class="st0" d="M70.5,49.2l3.3-3.5c0.6-0.7,0.6-1.7,0-2.4c-0.6-0.6-1.6-0.6-2.2,0l-3.3,3.5L65,43.3c-0.6-0.6-1.6-0.6-2.2,0
				c-0.6,0.6-0.6,1.7,0,2.3l3.3,3.5l-3.3,3.5c-0.6,0.6-0.6,1.7,0,2.4c0.6,0.7,1.6,0.7,2.2,0c0,0,0,0,0,0l3.3-3.5l3.3,3.5
				c0.6,0.6,1.6,0.6,2.2,0c0.6-0.6,0.6-1.7,0-2.3L70.5,49.2z"/>
		</symbol>
  </defs>
</svg>