<svg aria-hidden="true" version="1.1" xmlns="http://www.w3.org/2000/svg" xml:space="preserve">
  <defs>
	<symbol title="lang-fr-icon" id="langFrIcon" x="0px" y="0px" viewBox="0 0 100 100">
		<path class="st0" d="M29.93,68.42V29.54h15.02v3.89h-9.6v12.96h7.44v3.84h-7.44v18.19H29.93z M48.68,68.42V29.54h7.82
		c2.59,0,4.74,0.35,6.43,1.06c1.7,0.67,2.94,1.78,3.74,3.31c0.83,1.5,1.25,3.49,1.25,5.95c0,1.5-0.16,2.88-0.48,4.13
		c-0.32,1.22-0.83,2.26-1.54,3.12c-0.7,0.83-1.63,1.44-2.78,1.82l5.52,19.49h-5.23l-5.09-18.24H54.1v18.24H48.68z M54.1,46.29h2.06
		c1.54,0,2.78-0.19,3.74-0.58c0.96-0.38,1.66-1.04,2.11-1.97c0.45-0.93,0.67-2.22,0.67-3.89c0-2.27-0.42-3.9-1.25-4.9
		c-0.83-1.02-2.48-1.54-4.94-1.54h-2.4V46.29z"/>
	</symbol>

	<symbol title="dark-mode-icon" id="darkModeIcon" x="0px" y="0px" viewBox="0 0 100 100">
		<g>
			<path class="st0" d="M50.92,43.38c-0.39-0.26-1-0.39-1.84-0.39h-1.32v13.93h1.38c0.89,0,1.53-0.17,1.9-0.52
				c0.37-0.35,0.6-0.85,0.67-1.51c0.09-0.66,0.13-1.46,0.13-2.4v-5.68c0-0.91-0.06-1.64-0.17-2.2C51.56,44.05,51.31,43.64,50.92,43.38
				z"/>
			<path class="st0" d="M59.33,53.53c-0.23,0.22-0.42,0.47-0.56,0.76c-0.13,0.27-0.19,0.59-0.19,0.95c0,0.5,0.09,0.9,0.28,1.19
				c0.19,0.29,0.46,0.43,0.82,0.43c0.23,0,0.45-0.06,0.65-0.19c0.2-0.13,0.38-0.27,0.54-0.43c0.16-0.17,0.27-0.31,0.32-0.41v-3.54
				c-0.36,0.2-0.7,0.4-1.02,0.6C59.85,53.09,59.57,53.3,59.33,53.53z"/>
			<path class="st0" d="M69.2,28.4H30.8C18.87,28.4,9.2,38.07,9.2,50s9.67,21.6,21.6,21.6h38.4c11.93,0,21.6-9.67,21.6-21.6
				S81.13,28.4,69.2,28.4z M27,64.4c-7.95,0-14.4-6.45-14.4-14.4c0-7.95,6.45-14.4,14.4-14.4S41.4,42.05,41.4,50
				C41.4,57.95,34.95,64.4,27,64.4z M54.31,52.95c0,1.24-0.17,2.28-0.5,3.13c-0.32,0.85-0.84,1.5-1.58,1.94
				c-0.72,0.43-1.69,0.65-2.92,0.65h-4v-17.5h3.8c1.3,0,2.32,0.2,3.07,0.6c0.76,0.39,1.3,0.98,1.62,1.77c0.33,0.79,0.5,1.78,0.5,2.96
				V52.95z M61.6,58.67c-0.04-0.23-0.1-0.52-0.17-0.86c-0.06-0.36-0.1-0.68-0.13-0.97c-0.14,0.49-0.42,0.95-0.84,1.38
				c-0.4,0.42-0.96,0.63-1.68,0.63c-0.49,0-0.92-0.14-1.3-0.41c-0.37-0.29-0.67-0.65-0.89-1.08c-0.22-0.45-0.32-0.91-0.32-1.4
				c0-0.78,0.13-1.43,0.39-1.97c0.26-0.53,0.61-0.98,1.06-1.34c0.46-0.37,0.99-0.7,1.58-0.97c0.6-0.27,1.24-0.54,1.9-0.8v-0.89
				c0-0.5-0.03-0.92-0.09-1.25c-0.06-0.33-0.18-0.58-0.37-0.73c-0.17-0.17-0.44-0.26-0.8-0.26c-0.32,0-0.58,0.07-0.78,0.22
				c-0.19,0.14-0.32,0.35-0.41,0.63c-0.09,0.26-0.13,0.57-0.13,0.93v0.63l-2.29-0.09c0.03-1.38,0.35-2.4,0.95-3.05
				c0.6-0.66,1.54-0.99,2.81-0.99c1.24,0,2.12,0.34,2.64,1.02c0.52,0.68,0.78,1.66,0.78,2.94v5.7c0,0.39,0.01,0.76,0.02,1.12
				c0.03,0.36,0.06,0.7,0.09,1.02c0.04,0.3,0.08,0.59,0.11,0.86H61.6z M71.22,48.61c-0.17-0.07-0.37-0.13-0.6-0.17
				c-0.22-0.06-0.44-0.09-0.67-0.09c-0.36,0-0.69,0.09-0.99,0.26c-0.29,0.16-0.58,0.48-0.86,0.95v9.12h-2.31V46.19h2.31v1.77
				c0.46-0.76,0.92-1.27,1.38-1.53c0.46-0.26,0.92-0.39,1.38-0.39c0.06,0,0.11,0,0.15,0c0.06,0,0.13,0.01,0.22,0.02V48.61z
				M80.71,58.67H78.4l-2.33-6.39l-1.06,1.6v4.77H72.7v-17.5h2.31v10.43l3.37-5.4h2.42l-2.94,4.88L80.71,58.67z"/>
		</g>
	</symbol>

	<symbol title="turn-off-icon" id="turnOffIcon" x="0px" y="0px" viewBox="0 0 100 100">
		<path class="st0" d="M50,72.5c11.43,0,20.72-9.29,20.72-20.72c0-6.67-3.24-12.98-8.68-16.86c-1.47-1.05-3.51-0.71-4.56,0.76
		c-1.05,1.47-0.71,3.51,0.76,4.56c3.72,2.66,5.94,6.97,5.94,11.54c0,7.82-6.36,14.18-14.18,14.18S35.82,59.6,35.82,51.78
		c0-4.57,2.22-8.88,5.94-11.54c1.47-1.05,1.81-3.09,0.76-4.56c-1.05-1.47-3.09-1.81-4.56-0.76c-5.43,3.89-8.68,10.19-8.68,16.86
		C29.28,63.21,38.58,72.5,50,72.5z"/>
		<path class="st0" d="M49.77,46.98c1.55,0,2.81-1.14,2.81-2.54V30.05c0-1.4-1.26-2.54-2.81-2.54c-1.55,0-2.81,1.14-2.81,2.54v14.39
		C46.95,45.84,48.21,46.98,49.77,46.98z"/>
    </symbol>

	<symbol title="sound-turn-off-icon" id="audioOffIcon" x="0px" y="0px" viewBox="0 0 100 100">
		<path class="st0" d="M71.77,50.01l5.07-5.07c1.01-1.01,1.01-2.65,0-3.66c-1.01-1.01-2.65-1.01-3.66,0l-5.07,5.07l-5.07-5.07
			c-1.01-1.01-2.65-1.01-3.66,0c-1.01,1.01-1.01,2.65,0,3.66l5.07,5.07l-5.07,5.07c-1.01,1.01-1.01,2.65,0,3.66
			c0.51,0.51,1.17,0.76,1.83,0.76c0.66,0,1.32-0.25,1.83-0.76l5.07-5.07l5.07,5.07c0.51,0.51,1.17,0.76,1.83,0.76
			c0.66,0,1.32-0.25,1.83-0.76c1.01-1.01,1.01-2.65,0-3.66L71.77,50.01z"/>
		<path class="st0" d="M33.07,39.66h-5.93c-2.62,0-4.74,2.12-4.74,4.74v11.21c0,2.62,2.12,4.74,4.74,4.74h5.93
			c0.3,0,0.54-0.24,0.54-0.54V40.19C33.61,39.9,33.37,39.66,33.07,39.66z"/>
		<path class="st0" d="M52.59,28.44H50c-0.57,0-1.12,0.19-1.57,0.53l-11.15,8.53c-0.13,0.1-0.21,0.26-0.21,0.43v24.15
			c0,0.17,0.08,0.33,0.21,0.43l11.15,8.53c0.45,0.35,1,0.53,1.57,0.53h2.59c1.43,0,2.59-1.16,2.59-2.59V31.03
			C55.17,29.6,54.02,28.44,52.59,28.44z"/>
	</symbol>
 
	<symbol title="globe-icon" id="globeIcon" x="0px" y="0px" viewBox="0 0 100 100">
		<path id="icon-globe" d="M84.23,79.61c7.09-8.05,11.03-18.24,11.18-29.04c0-0.27,0-0.53,0-0.8c-0.04-11.96-4.72-23.2-13.18-31.67
		C73.84,9.71,62.72,5.04,50.88,4.92c-0.28,0-0.56,0-0.85,0c-6.18,0.05-12.16,1.33-17.78,3.82c-4.91,2.17-9.34,5.16-13.18,8.89
		c-2.89,2.81-5.41,6-7.46,9.49c-0.37,0.63-0.16,1.44,0.47,1.8c0.63,0.37,1.44,0.16,1.81-0.47c1.52-2.58,3.31-4.99,5.33-7.19
		c2.69-0.26,5.04-0.51,7.13-0.73c7.48-0.79,11.59-1.23,12.27,0.1c0.3,0.59,0.56,1.29,0.78,2.07c0.19,0.7,0.92,1.12,1.62,0.92
		c0.7-0.19,1.12-0.92,0.93-1.62c-0.26-0.96-0.59-1.82-0.97-2.57c-0.52-1.02-1.56-2.19-4.99-2.28c-2.23-0.06-5.45,0.28-9.91,0.76
		c-1.2,0.13-2.48,0.26-3.87,0.4c2.11-1.89,4.42-3.57,6.87-5c6.35-3.71,13.59-5.69,20.98-5.76c0.32,0,0.63,0,0.95,0
		c3.98,0.05,7.9,0.66,11.68,1.8c-0.72,3.11-1.27,5.7-1.62,7.71c-0.73,4.15-0.53,5.21-0.15,5.79c0.02,0.62-0.55,2.87-5.31,11
		c-0.23,0.39-0.42,0.72-0.55,0.95c-0.32,0.56-0.96,1.05-1.63,1.58c-0.34,0.26-0.67,0.53-0.99,0.81c-1.08,0.96-2.12,2.25-2.12,4.3
		c0,0.13,0,0.27,0.01,0.4v0c0.01,0.09,0.01,0.18,0.02,0.27c0.03,0.71,0.62,1.26,1.32,1.26c0.02,0,0.04,0,0.06,0
		c0.73-0.03,1.29-0.65,1.25-1.38c0-0.11-0.01-0.21-0.02-0.32c-0.1-1.48,0.69-2.17,2.09-3.26c0.85-0.66,1.72-1.34,2.3-2.35
		c0.13-0.23,0.32-0.55,0.54-0.93c5.02-8.56,6.38-11.99,5.34-13.64c-0.01-0.1-0.02-0.28-0.01-0.6c0.01-0.25,0.03-0.5,0.06-0.75
		c0.15-1.46,0.62-4.35,1.93-10.02c5.63,2.09,10.79,5.39,15.17,9.77c5.71,5.71,9.59,12.77,11.35,20.46c-0.18,0.22-0.37,0.44-0.55,0.65
		c-0.72,0.83-1.79,1.23-2.88,1.07l-2.71-0.41c-0.07-0.01-0.13-0.01-0.2-0.01h-4.44c-2.41,0-4.74,0.72-6.72,2.08l-3.69,2.53
		c-0.64-0.03-1.29,0-1.92,0.09c-0.49,0.07-0.98,0.18-1.46,0.32L66.6,46.9c-2.78,0.83-5.06,2.81-6.26,5.43
		c-0.81,1.77-1.36,2.58-1.65,2.94c-0.45-0.45-1.11-1.43-1.57-2.13c-0.99-1.48-2.02-3.01-3.28-3.86c-0.25-0.17-0.57-0.47-0.74-1.29
		c-0.15-0.71-0.85-1.17-1.56-1.01c-0.71,0.15-1.17,0.85-1.02,1.56c0.28,1.32,0.89,2.28,1.85,2.93c0.83,0.56,1.76,1.93,2.57,3.14
		c1.2,1.78,2.14,3.19,3.47,3.45c1.46,0.29,2.68-1.01,4.34-4.64c0.17-0.36,0.36-0.71,0.58-1.03c0.2-0.3,0.42-0.58,0.66-0.85
		c0.9-0.99,2.06-1.73,3.38-2.12l0.53-0.16c0.7-0.21,1.42-0.31,2.14-0.31c0.24,0,0.48,0.01,0.72,0.04c0.31,0.03,0.62-0.05,0.87-0.22
		l4.07-2.79c0.31-0.21,0.64-0.41,0.97-0.58c0.03-0.01,0.05-0.03,0.08-0.04c1.27-0.64,2.66-0.98,4.09-1c0.03,0,0.06,0,0.09,0h4.34
		l2.61,0.4c1.59,0.24,3.18-0.18,4.42-1.14c0.3,2.02,0.46,4.06,0.47,6.1c0,0.27,0,0.55,0,0.82c-0.1,7.4-2.11,14.55-5.83,20.86
		c-0.47,0.8-0.97,1.58-1.49,2.35c-0.99,1.46-2.07,2.84-3.22,4.15c-0.6,0.68-1.22,1.34-1.86,1.99c-1.27,1.27-2.61,2.46-4.01,3.54
		c-2.79,2.16-5.85,3.98-9.13,5.4c-2.21-1.4-3.75-2.49-4.2-3.24c-0.25-0.41-0.16-0.79,0.31-2.23c0.31-0.95,0.74-2.25,1.06-4
		c0.52-2.86,0.47-4.25-0.18-5.13c-0.52-0.7-1.26-0.84-1.76-0.91c-0.25-0.03-0.55-0.02-0.76-0.16c-0.23-0.15-0.35-0.46-0.51-0.67
		c-0.53-0.69-1.25-1.23-2.16-1.62c-2.25-0.97-3.83-2.93-4.22-5.25l-0.43-2.51c-0.01-0.07-0.29-1.8-0.86-3.56
		c-0.34-1.06-1.37-4.28-3.69-4.28c-0.69,0-1.31,0.09-1.87,0.26c-0.3,0.09-0.59,0.22-0.86,0.38c-1.53,0.88-2.4,2.68-2.69,5.49v0
		c-0.12,1.18-0.48,2.17-3.76,2.44c-0.73,0.06-1.27,0.69-1.21,1.42c0.06,0.73,0.69,1.27,1.42,1.21c2.46-0.2,5.78-0.91,6.17-4.8
		c0,0,0,0,0,0c0.25-2.5,0.93-3.34,1.68-3.61c0.12-0.04,0.24-0.07,0.36-0.1c0.23-0.04,0.47-0.04,0.7-0.04c0.63,0.37,1.59,3.07,2,5.64
		l0.43,2.52c0.1,0.6,0.26,1.18,0.47,1.74c0.2,0.53,0.45,1.05,0.75,1.54c1.04,1.72,2.62,3.11,4.56,3.95c0.29,0.13,0.54,0.27,0.75,0.44
		c0.2,0.16,0.36,0.34,0.48,0.53c0.83,1.33,1.95,1.55,2.64,1.64c0.06,0.01,0.11,0.01,0.17,0.02c0.03,0,0.06,0.01,0.1,0.01
		c0.04,0.33,0.03,1.12-0.3,2.95c-0.03,0.17-0.06,0.33-0.1,0.5c-0.27,1.32-0.6,2.32-0.87,3.15c-0.52,1.57-0.96,2.92-0.07,4.41
		c0.09,0.16,0.2,0.31,0.33,0.47c0.62,0.79,1.63,1.59,3.12,2.59c-4.38,1.5-9.03,2.29-13.79,2.29c-11.31,0-21.95-4.41-29.95-12.41
		c-0.9-0.9-1.76-1.84-2.58-2.81c0.23-0.5,0.47-1.02,0.72-1.55c0-0.01,0.01-0.01,0.01-0.02c0.02-0.04,0.04-0.09,0.06-0.13
		c0.7-1.49,1.49-3.1,2.34-4.82c0.08-0.16,0.16-0.32,0.25-0.47c1.44-2.47,4.05-4.01,6.9-4.07c0.66-0.01,1.33,0.05,2,0.1
		c0.65,0.04,1.3,0.09,1.95,0.13c0.94,0.07,1.7,0.11,2.39,0.15c0.73,0.04,1.35-0.51,1.39-1.24c0.04-0.73-0.51-1.35-1.24-1.39
		c-0.68-0.04-1.43-0.09-2.36-0.15c-1.17-0.08-2.34-0.18-3.51-0.23c-4.11-0.17-7.94,1.99-9.92,5.59c-0.07,0.13-0.15,0.27-0.21,0.41
		c-0.96,1.92-1.82,3.72-2.59,5.35c-1.47-2.02-2.74-4.15-3.81-6.36c-2.67-5.51-4.11-11.58-4.2-17.86c0-0.37-0.01-0.74,0-1.1
		c1.05-0.31,1.93-0.83,2.63-1.23c0.26-0.15,0.51-0.3,0.71-0.4c2.83-1.41,4.85-3.27,5.85-5.38c0.27-0.57,0.64-0.74,1.74-1.11
		c1.56-0.54,3.69-1.27,5.7-4.49c2.44-3.9,4.73-3.76,9.75-3.47c0.42,0.03,0.86,0.05,1.31,0.07c4.2,0.22,5.76,0.3,6.73-0.72
		c0.78-0.83,0.64-1.99,0.54-2.91c-0.05-0.38-0.09-0.82-0.13-1.36c-0.06-0.73-0.7-1.26-1.43-1.2c-0.73,0.06-1.26,0.7-1.2,1.42
		c0.05,0.57,0.09,1.03,0.14,1.45c0.04,0.34,0.06,0.6,0.07,0.77c-0.68,0.12-2.5,0.03-4.57-0.08c-0.45-0.02-0.88-0.05-1.3-0.07
		c-5.15-0.3-8.88-0.52-12.14,4.7c-1.52,2.43-2.94,2.92-4.32,3.39c-1.17,0.4-2.5,0.86-3.26,2.47c-0.74,1.57-2.35,3-4.65,4.15
		c-0.28,0.14-0.56,0.3-0.86,0.48c-0.37,0.22-0.76,0.44-1.17,0.64c0.33-4.16,1.26-8.22,2.79-12.1c0.27-0.68-0.07-1.44-0.74-1.71
		c-0.68-0.27-1.44,0.07-1.71,0.74c-2.05,5.21-3.09,10.72-3.11,16.36c0,0.28,0,0.56,0.01,0.84C5.6,62.4,10.27,73.41,18.59,81.74
		c8.5,8.5,19.8,13.18,31.82,13.18c10.16,0,19.81-3.35,27.68-9.51C80.31,83.67,82.37,81.73,84.23,79.61z"/>
	</symbol>

	<symbol title="waste-icon" id="wasteIcon" x="0px" y="0px" viewBox="0 0 100 100">
		<path class="st0" d="M25.27,43.34l-4.68-2.87l-0.29-1.34c-0.02-0.1-0.1-0.19-0.2-0.22c-0.1-0.03-0.21-0.01-0.29,0.07l-4,3.79
			c-0.08,0.08-0.11,0.2-0.08,0.3l0.48,1.49l-2.34,3.29c-0.05,0.08-0.07,0.17-0.04,0.26l3.46,10.85c0.04,0.12,0.14,0.2,0.27,0.2
			l6.29,0.25c0.03,0,0.07,0,0.1-0.01c0.05-0.01,0.09-0.04,0.12-0.08l4.65-4.87c0.07-0.08,0.1-0.19,0.07-0.29l-3.4-10.66
			C25.37,43.43,25.33,43.38,25.27,43.34z M16.36,43.07l3.48-3.3l0.17,0.8l-3.36,3.43L16.36,43.07L16.36,43.07z M20.23,48.71
			l3.22,10.1l-5.66-0.23l-3.36-10.51l2.14-3.02L19.63,48c0.08,0.08,0.19,0.1,0.29,0.07c0.04-0.01,0.09-0.04,0.12-0.08
			c0.11-0.12,0.11-0.3-0.01-0.42l-3.11-3l0.09-0.13l3.36-3.42l4.29,2.63L20.23,48.71z M28.19,54.18L24,58.56l-3.1-9.72l4.1-4.67
			L28.19,54.18z M23.06,50.5C23.06,50.5,23.06,50.5,23.06,50.5c0.33-0.1,0.7-0.35,1.09-0.72c0.72-0.68,1.41-1.77,1.28-2.45
			c-0.05-0.24-0.18-0.36-0.28-0.42c-0.12-0.07-0.33-0.14-0.66-0.03c-0.33,0.1-0.7,0.35-1.08,0.72c-0.72,0.68-1.41,1.77-1.28,2.45
			c0.05,0.24,0.18,0.36,0.28,0.42C22.52,50.54,22.74,50.6,23.06,50.5z M23.8,48.02c0.31-0.29,0.62-0.51,0.86-0.58
			c0.11-0.04,0.17-0.03,0.19,0.01c0.06,0.3-0.33,1.17-1.11,1.91c-0.31,0.29-0.62,0.51-0.86,0.58h0c-0.11,0.04-0.17,0.03-0.19,0
			C22.64,49.63,23.03,48.76,23.8,48.02z M23.27,54.15c-0.11-0.11-0.11-0.3,0-0.42l2.89-2.88c0.11-0.11,0.3-0.11,0.41,0
			c0.11,0.12,0.11,0.3,0,0.42l-2.89,2.88c-0.03,0.03-0.07,0.06-0.12,0.07C23.47,54.25,23.35,54.23,23.27,54.15z M23.8,55.81
			c-0.11-0.11-0.11-0.3,0-0.41l2.89-2.88c0.11-0.11,0.3-0.11,0.41,0c0.11,0.11,0.11,0.3,0,0.42l-2.89,2.88
			c-0.03,0.03-0.07,0.06-0.12,0.07C24,55.91,23.88,55.89,23.8,55.81z M16.61,52.2l1,2.91l-0.23-0.01l-0.99-2.91L16.61,52.2z
			M19.26,52.29l0.99,2.91l-0.23-0.01l-0.99-2.91L19.26,52.29z M17.04,52.21l1,2.91l-0.11,0l-1-2.91L17.04,52.21z M19.47,52.3
			l0.99,2.91l-0.11,0l-0.99-2.91L19.47,52.3z M18.78,52.27l0.99,2.91l-0.11,0l-1-2.91L18.78,52.27z M18.22,52.25l1,2.91l-0.11-0.01
			l-1-2.91L18.22,52.25z M17.55,52.23l1,2.91l-0.23-0.01l-1-2.91L17.55,52.23z M18.54,52.27l0.99,2.91l-0.23-0.01l-0.99-2.91
			L18.54,52.27z M17.74,52.24l1,2.91l-0.11,0l-1-2.91L17.74,52.24z M19.77,52.31l1,2.91l-0.11,0l-1-2.91L19.77,52.31z M20.28,52.33
			l0.99,2.91l-0.23-0.01l-1-2.91L20.28,52.33z M20.47,52.33l1,2.91l-0.11,0l-0.99-2.91L20.47,52.33z"/>
		<path class="st0" d="M85.45,45.64l0.49-0.81c0.22-0.37,0.1-0.85-0.27-1.07l-13.58-8.23c-0.37-0.22-0.85-0.1-1.07,0.27l-0.49,0.81
			c-0.22,0.37-0.1,0.85,0.27,1.07l13.58,8.23C84.75,46.13,85.23,46.01,85.45,45.64z M72.12,37.85l0.74-1.22l8.53,5.17l-0.74,1.22
			L72.12,37.85z M71.07,37.21c-0.11-0.07-0.15-0.22-0.08-0.33l0.49-0.81c0.07-0.11,0.22-0.15,0.33-0.08l0.59,0.35l-0.74,1.22
			L71.07,37.21z M84.67,45.44l-3.55-2.15l0.74-1.22l3.55,2.15c0.11,0.07,0.15,0.22,0.08,0.33L85,45.36
			C84.93,45.48,84.78,45.51,84.67,45.44z"/>
		<path class="st0" d="M50.37,76.51l3.61-4.89c0.02-0.03,0.04-0.06,0.05-0.09l0.62-1.81c0.06-0.18-0.03-0.37-0.21-0.43l-15.73-5.4
			c-0.18-0.06-0.37,0.03-0.43,0.21l-0.62,1.81c-0.01,0.03-0.02,0.07-0.02,0.1l-0.16,6.08c0,0.12,0.06,0.24,0.17,0.3l0.78,0.46
			l-4.44,3.88c0,0,0,0,0,0c-0.04,0.04-0.08,0.09-0.1,0.15l-0.62,1.81c-0.06,0.18,0.03,0.37,0.21,0.43l8.82,3.03
			c0.18,0.06,0.37-0.03,0.43-0.21c0.06-0.18-0.03-0.37-0.21-0.43l-8.5-2.92l0.4-1.16l15.09,5.18l-0.4,1.16l-4.01-1.38
			c-0.18-0.06-0.37,0.03-0.43,0.21c-0.06,0.18,0.03,0.37,0.21,0.43l4.33,1.49c0.18,0.06,0.37-0.03,0.43-0.21l0.62-1.81
			c0.02-0.06,0.02-0.12,0.01-0.18c0,0,0,0,0,0l-1.12-5.79l0.9,0.12C50.17,76.66,50.29,76.61,50.37,76.51z M38.81,64.64l15.09,5.18
			l-0.4,1.16l-0.93-0.32c0,0,0,0,0,0l-13.23-4.54c0,0,0,0,0,0l-0.93-0.32L38.81,64.64z M39.36,72.55l0.12-3.64l3.62,1.24
			c0.18,0.06,0.37-0.03,0.43-0.21c0.06-0.18-0.03-0.37-0.21-0.43L39.5,68.2l0.04-1.28l12.37,4.24l-3.31,4.56L39.36,72.55z
			M48.3,76.34l-0.4,1.16l-9.08-3.11l0.4-1.16L48.3,76.34z M38.17,71.9l0.14-5.41l0.57,0.2l-0.19,5.52L38.17,71.9z M34.88,76.85
			l3.4-2.97l-0.19,0.54l-2.48,2.69L34.88,76.85z M36.32,77.35l2.17-2.36l9.3,3.19l0.27,3.19L36.32,77.35z M49.49,81.87l-0.74-0.25
			l-0.3-3.64l0.19-0.54L49.49,81.87z M49.34,75.86l3.24-4.47l0.57,0.2l-3.21,4.36L49.34,75.86z"/>
		<path class="st0" d="M72.23,57.15c0.08-0.02,0.14-0.08,0.18-0.15c0.04-0.07,0.04-0.15,0.02-0.23c-0.02-0.08-0.08-0.14-0.15-0.17
			c-0.07-0.04-0.15-0.04-0.23-0.02l-3.42,1.1c-0.07,0.02-0.13,0.07-0.17,0.14c-0.04,0.07-0.05,0.14-0.03,0.22l0.36,1.49
			c-2.03,0.84-3.22,2.83-2.77,4.69c-0.15,0.11-0.26,0.27-0.32,0.45c-0.06,0.18-0.06,0.37,0,0.55l0.18,0.57
			c0.02,0.08,0.08,0.14,0.15,0.17C66.1,66,66.18,66,66.26,65.98l0.32-0.1l4.33,9.63c0.03,0.07,0.08,0.12,0.15,0.15
			c0.07,0.03,0.14,0.03,0.21,0.01l5.71-1.84c0.07-0.02,0.13-0.07,0.17-0.13c0.04-0.06,0.05-0.14,0.04-0.21l-2.1-10.35l0.32-0.1
			c0.08-0.02,0.14-0.08,0.17-0.15s0.04-0.15,0.02-0.23L75.4,62.1c-0.06-0.18-0.17-0.33-0.32-0.44c-0.15-0.11-0.33-0.17-0.52-0.18
			c-0.74-1.83-2.99-2.76-5.2-2.14l-0.28-1.17L72.23,57.15z M68.93,60.12l0.7,2.89l-3.05,0.98C66.26,62.47,67.25,60.85,68.93,60.12z
			M66.27,65.03c-0.02-0.08-0.02-0.16,0.02-0.23c0.04-0.07,0.1-0.12,0.17-0.15l3.31-1.06l0.14,0.58l-3.55,1.14L66.27,65.03z
			M70.05,64.76l0.36,1.48c-0.73,0.05-1.58,0.18-2.77,0.55l-0.49-1.1L70.05,64.76z M76.53,73.35l-5.2,1.67l-3.45-7.68
			c1.15-0.36,1.96-0.47,2.66-0.51l1.68,6.94c0.01,0.04,0.03,0.07,0.05,0.11c0.02,0.03,0.05,0.06,0.09,0.08
			c0.03,0.02,0.07,0.03,0.11,0.04c0.04,0.01,0.08,0,0.12,0c0.01,0,0.01,0,0.02-0.01c0.07-0.02,0.13-0.07,0.17-0.14
			c0.04-0.07,0.05-0.14,0.03-0.22l-1.65-6.82c0.1,0,0.2,0,0.31,0c0.96-0.01,1.95-0.03,3.63-0.53L76.53,73.35z M74.98,65.68
			c-1.63,0.49-2.55,0.51-3.52,0.52c-0.15,0-0.29,0-0.44,0.01l-0.4-1.64l3.88-1.25L74.98,65.68z M74.92,62.56l-4.44,1.43l-0.14-0.58
			l4.11-1.32c0.08-0.02,0.16-0.02,0.23,0.02c0.07,0.04,0.12,0.1,0.15,0.17L74.92,62.56z M73.97,61.62l-3.77,1.21l-0.7-2.91
			C71.39,59.37,73.3,60.11,73.97,61.62z"/>
		<path class="st0" d="M36.7,27.81c2.49,1.34,4.61,2.22,4.63,2.23l0.52,0.22c0.02,0.01,2.14,0.88,4.84,1.7
			c0.95,0.29,1.77,0.21,2.44-0.24c0.99-0.66,1.37-1.94,1.43-2.53c0.32-3.03,2.34-9.46,2.96-11.36c0.18-0.56-0.1-1.17-0.64-1.39
			l-0.68-0.28c-0.23-0.1-0.5,0.01-0.6,0.24l-0.06,0.13l0,0.01c-1.1,2.36-3.42,2.67-5.11,1.97c-1.69-0.7-3.1-2.57-2.21-5l0-0.01
			l0.05-0.13c0.1-0.24-0.02-0.5-0.25-0.6l-0.68-0.28c-0.54-0.23-1.17,0-1.44,0.53c-0.91,1.77-4.04,7.75-5.96,10.11
			c-0.37,0.46-1.02,1.64-0.79,2.8C35.31,26.7,35.83,27.34,36.7,27.81z M46.22,19.02c1.18,0.51,2.52,0.5,3.7-0.02
			c-1.4,1.43-3.01,1.71-4.19,1.21c-1.19-0.49-2.12-1.83-2.1-3.83C44.08,17.58,45.02,18.53,46.22,19.02z M36.38,23.47
			c1.91-2.34,4.85-7.92,6.03-10.21c0.13-0.26,0.45-0.38,0.72-0.26l0.59,0.24l-0.02,0.04l0,0.01c-1.52,3.97-0.13,6.64,1.81,7.44
			c1.94,0.8,4.81-0.1,6.55-3.98l0.02-0.04l0.59,0.24c0.27,0.11,0.41,0.42,0.32,0.7c-0.79,2.45-2.67,8.48-2.98,11.48
			c-0.04,0.4-0.34,1.56-1.18,2.12c-0.52,0.35-1.19,0.4-1.96,0.17c-2.68-0.81-4.77-1.68-4.79-1.69l-0.52-0.22
			c-0.02-0.01-2.11-0.88-4.57-2.21c-0.72-0.39-1.14-0.89-1.27-1.51C35.51,24.81,36.12,23.78,36.38,23.47z"/>
		<path class="st0" d="M53.48,42.77c-0.38-0.19-0.75-0.39-1.13-0.61c0.31-0.06,0.53-0.19,0.53-0.34v-0.47c0-0.29-0.56-0.52-1.24-0.52
		h-3.27c-0.69,0-1.24,0.23-1.24,0.52v0.47c0,0.15,0.22,0.28,0.53,0.34c-0.38,0.23-0.75,0.43-1.13,0.61c-1.71,0.84-2.64,1.9-2.64,3
		v7.86c0,0.71,0.5,1.4,1.46,1.99c0.52,0.32,1.39,0.51,2.32,0.51h0.06c0.61,0,1.14-0.17,1.31-0.4c0.25,0.08,0.57,0.13,0.9,0.13h0.22
		c0.31,0,0.6-0.04,0.84-0.11c0.19,0.22,0.7,0.38,1.3,0.38h0.06c0.93,0,1.79-0.19,2.32-0.51c0.95-0.59,1.46-1.28,1.46-1.99v-7.86
		C56.12,44.67,55.18,43.6,53.48,42.77z M44.79,44.89c0.39,0,0.77,0.06,1.06,0.17c0.42,0.16,0.97,0.25,1.54,0.25
		c0.57,0,1.12-0.09,1.54-0.25c0.29-0.11,0.67-0.17,1.07-0.17c0.4,0,0.78,0.06,1.07,0.17c0.42,0.16,0.97,0.25,1.54,0.25
		c0.57,0,1.12-0.09,1.54-0.25c0.29-0.11,0.67-0.17,1.06-0.17c0.1,0.2,0.17,0.41,0.2,0.62c-0.06,0-0.13,0-0.19,0
		c-0.57,0-1.12,0.09-1.54,0.25c-0.29,0.11-0.67,0.17-1.07,0.17c-0.4,0-0.78-0.06-1.07-0.17c-0.42-0.16-0.97-0.25-1.54-0.25
		c-0.57,0-1.12,0.09-1.54,0.25c-0.29,0.11-0.67,0.17-1.07,0.17c-0.4,0-0.78-0.06-1.07-0.17c-0.42-0.16-0.97-0.25-1.54-0.25
		c-0.06,0-0.13,0-0.19,0C44.62,45.3,44.69,45.1,44.79,44.89z M44.57,52.07c0.07,0,0.14-0.01,0.21-0.01c0.4,0,0.78,0.06,1.07,0.17
		c0.42,0.16,0.97,0.25,1.54,0.25c0.57,0,1.12-0.09,1.54-0.25c0.29-0.11,0.67-0.17,1.07-0.17c0.4,0,0.78,0.06,1.07,0.17
		c0.42,0.16,0.97,0.25,1.54,0.25c0.57,0,1.12-0.09,1.54-0.25c0.29-0.11,0.67-0.17,1.07-0.17c0.07,0,0.14,0,0.21,0.01v0.62
		c-0.07,0-0.14,0-0.21,0c-0.57,0-1.12,0.09-1.54,0.25c-0.29,0.11-0.67,0.17-1.07,0.17c-0.4,0-0.78-0.06-1.07-0.17
		c-0.42-0.16-0.97-0.25-1.54-0.25c-0.57,0-1.12,0.09-1.54,0.25c-0.29,0.11-0.67,0.17-1.07,0.17c-0.4,0-0.78-0.06-1.07-0.17
		c-0.42-0.16-0.97-0.25-1.54-0.25c-0.07,0-0.14,0-0.21,0V52.07z M55.22,51.78c-0.57,0-1.12,0.09-1.54,0.25
		c-0.29,0.11-0.67,0.17-1.07,0.17c-0.4,0-0.78-0.06-1.07-0.17c-0.42-0.16-0.97-0.25-1.54-0.25c-0.57,0-1.12,0.09-1.54,0.25
		c-0.29,0.11-0.67,0.17-1.07,0.17s-0.78-0.06-1.07-0.17c-0.42-0.16-0.97-0.25-1.54-0.25c-0.07,0-0.14,0-0.21,0v-0.62
		c0.07,0,0.14-0.01,0.21-0.01c0.4,0,0.78,0.06,1.07,0.17c0.42,0.16,0.97,0.25,1.54,0.25c0.57,0,1.12-0.09,1.54-0.25
		c0.29-0.11,0.67-0.17,1.07-0.17c0.4,0,0.78,0.06,1.07,0.17c0.42,0.16,0.97,0.25,1.54,0.25c0.57,0,1.12-0.09,1.54-0.25
		c0.29-0.11,0.67-0.17,1.07-0.17c0.07,0,0.14,0,0.21,0.01v0.62C55.36,51.78,55.29,51.78,55.22,51.78z M55.22,50.87
		c-0.57,0-1.12,0.09-1.54,0.25c-0.29,0.11-0.67,0.17-1.07,0.17c-0.4,0-0.78-0.06-1.07-0.17c-0.42-0.16-0.97-0.25-1.54-0.25
		c-0.57,0-1.12,0.09-1.54,0.25c-0.29,0.11-0.67,0.17-1.07,0.17s-0.78-0.06-1.07-0.17c-0.42-0.16-0.97-0.25-1.54-0.25
		c-0.07,0-0.14,0-0.21,0v-0.62c0.07,0,0.14-0.01,0.21-0.01c0.4,0,0.78,0.06,1.07,0.17c0.42,0.16,0.97,0.25,1.54,0.25
		c0.57,0,1.12-0.09,1.54-0.25c0.29-0.11,0.67-0.17,1.07-0.17c0.4,0,0.78,0.06,1.07,0.17c0.42,0.16,0.97,0.25,1.54,0.25
		c0.57,0,1.12-0.09,1.54-0.25c0.29-0.11,0.67-0.17,1.07-0.17c0.07,0,0.14,0,0.21,0.01v0.62C55.36,50.87,55.29,50.87,55.22,50.87z
		 M55.22,49.96c-0.57,0-1.12,0.09-1.54,0.25c-0.29,0.11-0.67,0.17-1.07,0.17s-0.78-0.06-1.07-0.17c-0.42-0.16-0.97-0.25-1.54-0.25
		c-0.57,0-1.12,0.09-1.54,0.25c-0.29,0.11-0.67,0.17-1.07,0.17s-0.78-0.06-1.07-0.17c-0.42-0.16-0.97-0.25-1.54-0.25
		c-0.07,0-0.14,0-0.21,0v-0.62c0.07,0,0.14-0.01,0.21-0.01c0.4,0,0.78,0.06,1.07,0.17c0.42,0.16,0.97,0.25,1.54,0.25
		c0.57,0,1.12-0.09,1.54-0.25c0.29-0.11,0.67-0.17,1.07-0.17c0.4,0,0.78,0.06,1.07,0.17c0.42,0.16,0.97,0.25,1.54,0.25
		c0.57,0,1.12-0.09,1.54-0.25c0.29-0.11,0.67-0.17,1.07-0.17c0.07,0,0.14,0,0.21,0.01v0.62C55.36,49.96,55.29,49.96,55.22,49.96z
		 M55.22,49.05c-0.57,0-1.12,0.09-1.54,0.25c-0.29,0.11-0.67,0.17-1.07,0.17s-0.78-0.06-1.07-0.17c-0.42-0.16-0.97-0.25-1.54-0.25
		c-0.57,0-1.12,0.09-1.54,0.25c-0.29,0.11-0.67,0.17-1.07,0.17c-0.4,0-0.78-0.06-1.07-0.17c-0.42-0.16-0.97-0.25-1.54-0.25
		c-0.07,0-0.14,0-0.21,0v-3.25c0.07,0,0.14-0.01,0.21-0.01c0.4,0,0.78,0.06,1.07,0.17c0.42,0.16,0.97,0.25,1.54,0.25
		c0.57,0,1.12-0.09,1.54-0.25c0.29-0.11,0.67-0.17,1.07-0.17c0.4,0,0.78,0.06,1.07,0.17c0.42,0.16,0.97,0.25,1.54,0.25
		c0.57,0,1.12-0.09,1.54-0.25c0.29-0.11,0.67-0.17,1.07-0.17c0.07,0,0.14,0,0.21,0.01v3.25C55.36,49.05,55.29,49.05,55.22,49.05z
		 M47.81,41.34c0-0.13,0.25-0.23,0.55-0.23h3.27c0.3,0,0.55,0.1,0.55,0.23v0.47c0,0.05-0.09,0.08-0.2,0.08h-3.98
		c-0.11,0-0.2-0.04-0.2-0.08V41.34z M47.05,42.95c0.47-0.23,0.92-0.48,1.39-0.77h3.12c0.47,0.29,0.92,0.54,1.39,0.77
		c0.98,0.48,1.7,1.05,2.1,1.65c-0.51,0.02-0.99,0.1-1.37,0.25c-0.29,0.11-0.67,0.17-1.07,0.17c-0.4,0-0.78-0.06-1.07-0.17
		c-0.42-0.16-0.97-0.25-1.54-0.25c-0.57,0-1.12,0.09-1.54,0.25c-0.29,0.11-0.67,0.17-1.07,0.17c-0.4,0-0.78-0.06-1.07-0.17
		c-0.38-0.14-0.86-0.23-1.37-0.25C45.35,44,46.07,43.44,47.05,42.95z M50.15,55.56h-0.22c-0.31,0-0.58-0.08-0.69-0.19
		c0.13-0.07,0.32-0.11,0.54-0.11h0.43c0.25,0,0.47,0.06,0.59,0.14C50.68,55.5,50.43,55.56,50.15,55.56z M54.09,55.45
		c-0.39,0.24-1.04,0.39-1.74,0.39h-0.06c-0.38,0-0.69-0.13-0.69-0.29c0-0.32-0.62-0.58-1.38-0.58h-0.43c-0.76,0-1.38,0.26-1.38,0.58
		c0,0.16-0.31,0.29-0.69,0.29h-0.06c-0.7,0-1.35-0.14-1.74-0.39c-0.88-0.54-1.34-1.17-1.34-1.82v-0.64c0.07,0,0.14-0.01,0.21-0.01
		c0.4,0,0.78,0.06,1.07,0.17c0.42,0.16,0.97,0.25,1.54,0.25c0.57,0,1.12-0.09,1.54-0.25c0.29-0.11,0.67-0.17,1.07-0.17
		c0.4,0,0.78,0.06,1.07,0.17c0.42,0.16,0.97,0.25,1.54,0.25c0.57,0,1.12-0.09,1.54-0.25c0.29-0.11,0.67-0.17,1.07-0.17
		c0.07,0,0.14,0,0.21,0.01v0.64C55.43,54.28,54.96,54.91,54.09,55.45z"/>
	</symbol>

	<symbol title="recycle-icon" id="recycleIcon" x="0px" y="0px" viewBox="0 0 100 100">
		<g>
			<path class="st0" d="M49.72,9.53c7.07,0,14.16,2.02,20.48,5.84c4.01,2.43,7.62,5.49,10.69,9.05l-10.57-0.35
				c-1.24-0.04-2.28,0.94-2.32,2.19c-0.04,1.25,0.93,2.3,2.17,2.34l14.63,0.49c0.84,0.35,1.81,0.15,2.45-0.49
				c0.64-0.65,0.83-1.62,0.49-2.47l-0.48-14.72c-0.03-1.25-1.06-2.24-2.3-2.21c-1.24,0.03-2.23,1.06-2.2,2.31c0,0.02,0,0.03,0,0.05
				l0.28,8.49c-3.1-3.33-6.63-6.21-10.51-8.56c-7.03-4.24-14.91-6.49-22.8-6.49c-12.6,0-24.22,5.23-32.71,14.72
				C9.49,28.14,5,39.46,5,50.01c0,1.25,1.01,2.26,2.25,2.26s2.25-1.01,2.25-2.26c0-9.46,4.06-19.65,10.86-27.25
				C27.98,14.23,38.41,9.53,49.72,9.53z"/>
			<path class="st0" d="M92.75,47.74c-1.24,0-2.25,1.01-2.25,2.26c0,9.46-4.06,19.65-10.86,27.25c-7.63,8.53-18.05,13.22-29.36,13.22
				c-7.07,0-14.16-2.02-20.48-5.84c-4.01-2.43-7.62-5.49-10.69-9.05l10.57,0.35c1.24,0.04,2.28-0.94,2.32-2.19
				c0.04-1.25-0.93-2.3-2.17-2.34l-14.63-0.49c-0.84-0.35-1.81-0.15-2.45,0.49c-0.64,0.65-0.83,1.62-0.49,2.46l0.48,14.72
				c0.03,1.25,1.06,2.24,2.3,2.21c1.24-0.03,2.23-1.06,2.2-2.31c0-0.02,0-0.03,0-0.05l-0.28-8.49c3.1,3.33,6.63,6.21,10.51,8.56
				c7.03,4.24,14.91,6.49,22.8,6.49c12.6,0,24.22-5.23,32.71-14.72C90.51,71.88,95,60.56,95,50.01C95,48.75,93.99,47.74,92.75,47.74z"
				/>
		</g>
		<g>
			<g>
				<path d="M54.45,29.19c1.07-2.21,2.41-4.95,1.07-8.11c-1.44-3.4-4.33-4.7-5.92-5.17c-0.51-0.15-1.04,0.05-1.32,0.51
					c-0.28,0.46-0.22,1.02,0.15,1.41c1.3,1.35,1.55,2.74,0.73,4.13c-0.28,0.48-0.7,0.95-1.29,1.46c-0.32,0.27-0.36,0.75-0.09,1.06
					c0.27,0.32,0.75,0.35,1.06,0.08c0.72-0.62,1.25-1.22,1.62-1.85c0.68-1.16,0.86-2.35,0.52-3.53c-0.13-0.47-0.35-0.93-0.63-1.38
					c1.39,0.64,2.9,1.8,3.78,3.88c1.07,2.53-0.05,4.83-1.03,6.86c-0.73,1.51-1.42,2.93-1.09,4.25c0.23,0.92,0.88,1.46,1.78,1.48
					c1.91,0.05,4.43-2.31,5.62-5.12c0.56,1.19,1.15,3.12,0.82,5.61c-0.41,3.13-3.77,5.92-5.4,7.11l-1.85,0.01
					c0.23-0.76,0.54-1.5,0.82-1.93c0.68-1.03,0.52-1.72,0.27-2.12c-0.51-0.81-1.72-1.03-3.93-0.73c-0.37,0.05-0.64-0.02-0.86-0.24
					c-0.81-0.79-0.87-3.15-0.72-4.46c0.04-0.31-0.12-0.61-0.4-0.75c-0.28-0.14-0.61-0.1-0.85,0.1c-0.11,0.1-2.75,2.43-3.62,5.34
					c-0.43,1.42-0.2,3.19,0.11,4.56c-3.64-2.62-3.96-5.56-3.57-7.6c0.71-3.68,3.09-5.59,5.68-7.38c0.35-0.24,0.43-0.71,0.2-1.05
					c-0.23-0.34-0.7-0.43-1.05-0.19c-2.75,1.9-5.5,4.11-6.32,8.34c-0.58,3.02,0.47,5.85,2.97,8.14l-2.88,0.01
					c-0.44,0-0.85,0.22-1.1,0.6c-0.24,0.37-0.28,0.83-0.11,1.24l0.05,0.11c0.72,1.65,1.86,3.07,3.29,4.13
					c-0.03,0.02-0.05,0.05-0.08,0.07c-0.29,0.29-0.45,0.68-0.45,1.08l-0.01,1.54c0,0.41,0.16,0.79,0.44,1.08
					c0.29,0.29,0.67,0.45,1.08,0.44l0.98,0l4.49,29.83c0.19,1.29,1.28,2.22,2.59,2.21c0.72,0,1.38-0.29,1.86-0.77
					c0.38-0.38,0.65-0.89,0.74-1.46l4.72-29.86l0.88,0c0.41,0,0.79-0.16,1.08-0.45c0.29-0.29,0.45-0.68,0.45-1.08l0.01-1.54
					c0-0.41-0.16-0.79-0.44-1.08c-0.01-0.01-0.02-0.02-0.03-0.03c0.43-0.31,0.84-0.66,1.21-1.04c0.93-0.93,1.69-2.04,2.22-3.28
					c0.17-0.41,0.13-0.87-0.11-1.23c-0.24-0.37-0.65-0.58-1.09-0.58l-4.25,0.02c0.4-0.35,0.77-0.69,1.11-1.02
					c2.51-2.51,3.19-4.67,3.35-5.89c0.46-3.49-0.66-6.04-1.37-7.25c-0.23-0.39-0.67-0.61-1.12-0.56c-0.45,0.05-0.84,0.37-0.98,0.8
					c-0.9,2.79-3.3,4.85-4.41,4.82c-0.13,0-0.27-0.01-0.36-0.36C53.27,31.62,53.81,30.49,54.45,29.19z M45.13,37.53
					c0.38-1.25,1.17-2.4,1.86-3.25c0.06,1.27,0.34,2.81,1.22,3.68c0.56,0.54,1.29,0.77,2.12,0.65c1.77-0.25,2.31-0.04,2.43,0.03
					c-0.01,0.07-0.06,0.22-0.23,0.49c-0.42,0.64-0.85,1.71-1.13,2.76l-5.98,0.02C45.11,40.78,44.72,38.87,45.13,37.53z M58.24,49.09
					l-0.01,1.54c0,0.01-0.01,0.02-0.02,0.02l-9.22,0.04c-0.42,0-0.76,0.34-0.76,0.76c0,0.42,0.33,0.75,0.75,0.75l6.81-0.03L51.12,81.8
					c-0.09,0.55-0.55,0.95-1.11,0.95c-0.55,0-1.02-0.39-1.1-0.94l-4.45-29.6l1.01,0c0.42,0,0.76-0.34,0.76-0.76
					c0-0.42-0.33-0.75-0.75-0.75l-3.52,0.01c0,0-0.01,0-0.02-0.01c-0.01-0.01-0.01-0.01-0.01-0.02l0.01-1.54
					c0-0.01,0.01-0.02,0.02-0.02L58.24,49.09l-0.02-0.02c0,0,0.01,0,0.02,0.01C58.24,49.08,58.24,49.09,58.24,49.09z M61.18,43.36
					c-0.86,1.83-2.31,3.31-4.12,4.21l-13.82,0.06c-1.81-0.88-3.25-2.35-4.09-4.17L61.18,43.36z"/>
			</g>
		</g>
	</symbol>

    <symbol title="cross-icon" id="crossIcon" viewBox="0 0 50 50">
        <path d="M37.5,43.7L25,31.3L12.5,43.7c-1.7,1.7-4.5,1.7-6.3,0c-1.7-1.7-1.7-4.5,0-6.3L18.7,25L6.3,12.5
        c-1.7-1.7-1.7-4.5,0-6.3c1.7-1.7,4.5-1.7,6.3,0L25,18.7L37.5,6.3c1.7-1.7,4.5-1.7,6.3,0c1.7,1.7,1.7,4.5,0,6.3L31.3,25l12.5,12.5
        c1.7,1.7,1.7,4.5,0,6.3C42,45.4,39.2,45.4,37.5,43.7z"/>
    </symbol>
  </defs>
</svg>